<svg width="35" height="29" viewBox="0 0 35 29" fill="none" xmlns="http://www.w3.org/2000/svg">
<path fill-rule="evenodd" clip-rule="evenodd" d="M7.26962 0.916656C5.27255 0.916656 3.79483 2.66459 3.86098 4.56021C3.92445 6.3814 3.84199 8.74005 3.24817 10.6636C2.65259 12.5927 1.64529 13.8147 0 13.9717V15.7429C1.64529 15.8999 2.65259 17.1219 3.24817 19.0512C3.84199 20.9746 3.92445 23.3333 3.86098 25.1544C3.79483 27.0498 5.27255 28.798 7.26991 28.798H27.733C29.7302 28.798 31.2076 27.0501 31.1414 25.1544C31.078 23.3333 31.1604 20.9746 31.7542 19.0512C32.3501 17.1219 33.3547 15.8999 35 15.7429V13.9717C33.3547 13.8147 32.3501 12.5927 31.7542 10.6636C31.1604 8.74034 31.078 6.3814 31.1414 4.56021C31.2076 2.66488 29.7302 0.916656 27.733 0.916656H7.26962ZM23.7288 18.0793C23.7288 20.6896 21.7818 22.2726 18.5509 22.2726H13.0508C12.8935 22.2726 12.7426 22.2101 12.6314 22.0988C12.5201 21.9875 12.4576 21.8367 12.4576 21.6794V8.03531C12.4576 7.87797 12.5201 7.72709 12.6314 7.61583C12.7426 7.50458 12.8935 7.44209 13.0508 7.44209H18.5195C21.2135 7.44209 22.9816 8.9014 22.9816 11.142C22.9816 12.7146 21.7923 14.1226 20.2768 14.3691V14.4513C22.3398 14.6776 23.7288 16.1061 23.7288 18.0793ZM17.9512 9.32259H14.8151V13.7522H17.4564C19.4982 13.7522 20.6242 12.93 20.6242 11.4603C20.6242 10.0831 19.656 9.32259 17.9512 9.32259ZM14.8151 15.5099V20.3915H18.0666C20.1924 20.3915 21.3185 19.5384 21.3185 17.9353C21.3185 16.3318 20.1609 15.5096 17.9298 15.5096L14.8151 15.5099Z" fill="#13161C"/>
</svg>
