<svg width="35" height="35" viewBox="0 0 35 35" fill="none" xmlns="http://www.w3.org/2000/svg">
<g clip-path="url(#clip0_53_36)">
<path d="M3.80489 16.6565L13.1031 7.34215L15.8218 10.0769C15.6459 10.7562 15.6968 11.4744 15.9669 12.1221C16.237 12.7697 16.7115 13.3113 17.3179 13.6643V22.5765C16.8293 22.8586 16.4235 23.2642 16.1411 23.7527C15.8587 24.2412 15.7098 24.7953 15.7092 25.3595C15.7092 26.2128 16.0482 27.0312 16.6516 27.6345C17.255 28.2379 18.0733 28.5769 18.9266 28.5769C19.7799 28.5769 20.5983 28.2379 21.2016 27.6345C21.805 27.0312 22.144 26.2128 22.144 25.3595C22.1434 24.7953 21.9945 24.2412 21.7121 23.7527C21.4298 23.2642 21.0239 22.8586 20.5353 22.5765V14.7582L23.8653 18.1204C23.7697 18.3771 23.7312 18.6516 23.7527 18.9247C23.7527 19.5611 23.9414 20.1831 24.2949 20.7122C24.6484 21.2413 25.1509 21.6537 25.7388 21.8972C26.3267 22.1407 26.9736 22.2045 27.5978 22.0803C28.2219 21.9562 28.7952 21.6497 29.2451 21.1998C29.6951 20.7498 30.0015 20.1765 30.1256 19.5524C30.2498 18.9283 30.1861 18.2814 29.9426 17.6935C29.699 17.1056 29.2867 16.6031 28.7576 16.2496C28.2285 15.8961 27.6064 15.7074 26.9701 15.7074C26.697 15.6859 26.4225 15.7243 26.1657 15.82L22.0314 11.6856C22.2242 10.9406 22.1435 10.1512 21.8041 9.46055C21.4647 8.76991 20.889 8.2238 20.1814 7.92128C19.5269 7.65937 18.8069 7.60874 18.1223 7.7765L15.3875 5.05781L16.6584 3.80302C17.2612 3.20378 18.0766 2.86743 18.9266 2.86743C19.7766 2.86743 20.5921 3.20378 21.1949 3.80302L34.0644 16.6726C34.6637 17.2754 35 18.0908 35 18.9408C35 19.7908 34.6637 20.6063 34.0644 21.2091L21.1949 34.0786C20.5921 34.6779 19.7766 35.0142 18.9266 35.0142C18.0766 35.0142 17.2612 34.6779 16.6584 34.0786L3.78881 21.2091C3.49072 20.9092 3.25466 20.5535 3.09413 20.1624C2.93359 19.7712 2.85173 19.3523 2.85323 18.9294C2.85472 18.5066 2.93954 18.0883 3.10283 17.6982C3.26613 17.3082 3.5047 16.9542 3.80489 16.6565Z" fill="#13161C"/>
</g>
<defs>
<clipPath id="clip0_53_36">
<rect width="35" height="35" fill="white"/>
</clipPath>
</defs>
</svg>
