<svg width="20" height="18" viewBox="0 0 20 18" fill="none" xmlns="http://www.w3.org/2000/svg">
<path d="M13.4209 6C14.747 6 16.0187 6.52678 16.9564 7.46447C17.8941 8.40215 18.4209 9.67392 18.4209 11V16.8333H15.0875V11C15.0875 10.558 14.9119 10.134 14.5994 9.82149C14.2868 9.50893 13.8629 9.33333 13.4209 9.33333C12.9789 9.33333 12.5549 9.50893 12.2424 9.82149C11.9298 10.134 11.7542 10.558 11.7542 11V16.8333H8.42088V11C8.42088 9.67392 8.94766 8.40215 9.88534 7.46447C10.823 6.52678 12.0948 6 13.4209 6Z" stroke="#0AE98A" stroke-width="2" stroke-linecap="round" stroke-linejoin="round"/>
<path d="M5.08754 6.83333H1.75421V16.8333H5.08754V6.83333Z" stroke="#0AE98A" stroke-width="2" stroke-linecap="round" stroke-linejoin="round"/>
<path d="M3.42088 4.33333C4.34135 4.33333 5.08754 3.58714 5.08754 2.66667C5.08754 1.74619 4.34135 1 3.42088 1C2.5004 1 1.75421 1.74619 1.75421 2.66667C1.75421 3.58714 2.5004 4.33333 3.42088 4.33333Z" stroke="#0AE98A" stroke-width="2" stroke-linecap="round" stroke-linejoin="round"/>
</svg>
