<svg width="36" height="35" viewBox="0 0 36 35" fill="none" xmlns="http://www.w3.org/2000/svg">
<g clip-path="url(#clip0_53_30)">
<path fill-rule="evenodd" clip-rule="evenodd" d="M8.70312 0H27.2969C31.8273 0 35.5 3.67266 35.5 8.20312V26.7969C35.5 31.3273 31.8273 35 27.2969 35H8.70312C4.17266 35 0.5 31.3273 0.5 26.7969V8.20312C0.5 3.67266 4.17266 0 8.70312 0ZM21.5915 20.5615C21.7311 20.0591 23.6198 14.1416 23.6198 14.1416C24.5223 11.7131 26.2808 9.43359 29.6211 9.43359L24.8852 21.0733C23.9083 23.4087 22.0846 25.5393 18.7071 25.5393C18.7071 25.5393 17.2743 15.5745 17.2557 15.3512C17.1719 15.5838 15.1528 20.8221 15.1528 20.8221C14.2039 23.2505 12.3895 25.53 9.02141 25.5393L6.37891 9.43359C8.57461 9.43359 11.2822 11.2293 11.4777 14.1974C11.4777 14.1974 11.822 20.1056 11.8312 20.5708C12.0173 20.0777 14.3154 14.1416 14.3154 14.1416C15.2273 11.7224 16.9393 9.43359 20.1587 9.43359C20.1587 9.43359 21.5357 20.0684 21.5915 20.5615Z" fill="#13161C"/>
</g>
<defs>
<clipPath id="clip0_53_30">
<rect width="35" height="35" fill="white" transform="translate(0.5)"/>
</clipPath>
</defs>
</svg>
