<svg width="36" height="35" viewBox="0 0 36 35" fill="none" xmlns="http://www.w3.org/2000/svg">
<g clip-path="url(#clip0_53_28)">
<path d="M3.74771 7.08313C3.32015 7.0837 2.8969 7.16858 2.50218 7.33291C2.10745 7.49724 1.74901 7.73779 1.44736 8.0408C1.1457 8.34381 0.906759 8.70332 0.744202 9.09878C0.581644 9.49423 0.498662 9.91786 0.500005 10.3454V21.2202C0.499813 21.6487 0.584064 22.073 0.747941 22.4689C0.911819 22.8648 1.15211 23.2245 1.45508 23.5274C1.75805 23.8304 2.11776 24.0707 2.51364 24.2346C2.90953 24.3984 3.33383 24.4827 3.7623 24.4825H17.2563L23.4235 27.9169L22.0206 24.4825H32.2377C34.0402 24.4825 35.5 23.0242 35.5 21.2202V10.3454C35.5 8.54292 34.0417 7.08313 32.2377 7.08313H3.74771ZM15.531 8.99501C15.8167 9.00051 16.092 9.10341 16.3113 9.28667C16.4392 9.38327 16.5449 9.50613 16.6214 9.647C16.6978 9.78786 16.7433 9.94346 16.7546 10.1033C16.7738 10.3408 16.7242 10.5788 16.6117 10.7888C16.0546 11.8198 15.5967 13.5508 15.2248 15.9542C14.866 18.2875 14.7377 20.1046 14.8238 21.4069C14.8529 21.7637 14.7956 22.0782 14.6517 22.3504C14.5814 22.4951 14.4744 22.6188 14.3413 22.7091C14.2082 22.7995 14.0537 22.8533 13.8933 22.8652C13.5215 22.8944 13.135 22.7223 12.7631 22.3373C11.4317 20.9767 10.3729 18.9452 9.6 16.2415C8.90135 17.6088 8.21445 18.9821 7.53938 20.3613C6.69646 21.98 5.98042 22.8083 5.37959 22.8521C4.99313 22.8813 4.665 22.5517 4.37771 21.8648C3.64855 19.9904 2.86153 16.3698 2.01667 11.0031C1.97292 10.6313 2.04584 10.3031 2.24563 10.045C2.44542 9.77376 2.7473 9.63084 3.14688 9.60167C3.87605 9.54334 4.29118 9.88653 4.3923 10.6313C4.83563 13.6223 5.32271 16.1554 5.8375 18.2292L8.97146 12.2646C9.2573 11.7201 9.61507 11.4338 10.0448 11.4056C10.6733 11.3619 11.0598 11.7629 11.2173 12.6073C11.576 14.5104 12.034 16.1277 12.5765 17.5015C12.9483 13.8673 13.5783 11.2481 14.465 9.63084C14.6808 9.23126 14.9944 9.03 15.41 9.0023L15.5325 8.99646L15.531 8.99501ZM20.9765 10.5452C21.2195 10.5452 21.4772 10.5744 21.7494 10.6327C22.2294 10.7239 22.6834 10.9197 23.0792 11.2063C23.4749 11.4929 23.8026 11.8632 24.039 12.2908C24.4969 13.0638 24.7244 13.9942 24.7244 15.1098C24.7373 16.5373 24.3509 17.9401 23.6088 19.1596C22.7532 20.5907 21.6327 21.3063 20.2473 21.3063C19.9874 21.3041 19.7284 21.2753 19.4744 21.2202C18.4579 21.0058 17.6996 20.4619 17.1848 19.5606C16.7269 18.7731 16.4979 17.8286 16.4979 16.7271C16.4979 15.2542 16.8698 13.9091 17.6135 12.6919C18.4871 11.2613 19.6027 10.5452 20.9765 10.5452ZM29.9481 10.5452C30.1912 10.5452 30.4488 10.5744 30.721 10.6327C31.736 10.8456 32.4944 11.391 33.0106 12.2908C33.4685 13.0638 33.696 13.9942 33.696 15.1098C33.709 16.5373 33.3226 17.9401 32.5804 19.1596C31.7249 20.5907 30.6044 21.3063 29.219 21.3063C28.9591 21.3041 28.7001 21.2753 28.446 21.2202C27.4296 21.0058 26.6713 20.4619 26.1565 19.5606C25.6985 18.7731 25.4696 17.8286 25.4696 16.7271C25.4696 15.2542 25.8415 13.9091 26.5852 12.6919C27.4588 11.2613 28.5744 10.5452 29.9481 10.5452ZM21.0421 12.9442C20.5944 12.9413 20.1583 13.2373 19.7456 13.8513C19.3808 14.3622 19.1229 14.9416 18.9873 15.5546C18.9158 15.8979 18.8821 16.2481 18.8867 16.5988C18.8867 17.0129 18.9742 17.4577 19.1448 17.901C19.3592 18.4581 19.645 18.76 19.9892 18.8315C20.3465 18.9029 20.7329 18.744 21.1485 18.3721C21.6779 17.901 22.0352 17.1996 22.235 16.2546C22.3079 15.9265 22.3356 15.5692 22.3356 15.1958C22.3305 14.7497 22.2435 14.3083 22.079 13.8935C21.8631 13.3365 21.5773 13.036 21.2331 12.9646C21.17 12.9536 21.1061 12.9468 21.0421 12.9442ZM30.0138 12.9442C29.566 12.9413 29.13 13.2373 28.7173 13.8513C28.3525 14.3622 28.0946 14.9416 27.959 15.5546C27.8875 15.8827 27.8583 16.24 27.8583 16.5988C27.8583 17.0129 27.9458 17.4577 28.1165 17.901C28.3308 18.4581 28.6181 18.76 28.9608 18.8315C29.3181 18.9029 29.7046 18.744 30.1202 18.3721C30.6496 17.901 31.0069 17.1996 31.2067 16.2546C31.265 15.9265 31.3088 15.5692 31.3088 15.1958C31.3031 14.7496 31.2156 14.3082 31.0506 13.8935C30.8348 13.3365 30.549 13.036 30.2048 12.9646C30.1416 12.9536 30.0778 12.9468 30.0138 12.9442Z" fill="#13161C"/>
</g>
<defs>
<clipPath id="clip0_53_28">
<rect width="35" height="35" fill="white" transform="translate(0.5)"/>
</clipPath>
</defs>
</svg>
