<svg width="36" height="35" viewBox="0 0 36 35" fill="none" xmlns="http://www.w3.org/2000/svg">
<path d="M3.45013 18.4538C3.45013 24.3867 6.83588 29.8174 12.1935 32.4026L4.78955 12.149C3.89661 14.139 3.45013 16.2778 3.45013 18.4538ZM29.4199 17.6727C29.4199 15.7571 28.7316 14.4366 28.1363 13.3951C27.541 12.3536 26.6109 11.0331 26.6109 9.76843C26.6109 8.50374 27.6898 7.01587 29.2153 7.01587H29.4199C23.1135 1.23176 13.3097 1.65953 7.52419 7.98298C6.9661 8.59673 6.44522 9.24767 5.99875 9.93581H7.00331C8.62177 9.93581 11.1332 9.73123 11.1332 9.73123C11.9703 9.67544 12.0633 10.9029 11.2262 11.0145C11.2262 11.0145 10.3891 11.1075 9.45891 11.1633L15.0956 27.9576L18.4814 17.7843L16.063 11.1633C15.2258 11.1075 14.4445 11.0145 14.4445 11.0145C13.6074 10.9587 13.7004 9.69403 14.5375 9.73123C14.5375 9.73123 17.1047 9.93581 18.6116 9.93581C20.1184 9.93581 22.7414 9.73123 22.7414 9.73123C23.5786 9.67544 23.6716 10.9029 22.8345 11.0145C22.8345 11.0145 21.9973 11.1075 21.0672 11.1633L26.6667 27.8274L28.2665 22.7687C28.9735 20.5554 29.4013 18.9932 29.4013 17.6541L29.4199 17.6727ZM19.2069 19.7929L14.5561 33.3139C17.6814 34.2253 21.0114 34.1509 24.0809 33.0722L23.9692 32.8676L19.2069 19.7929ZM32.5452 11.0145C32.6196 11.5353 32.6569 12.0746 32.6569 12.614C32.6569 14.1948 32.3592 15.9616 31.4849 18.1563L26.7411 31.8447C33.9963 27.6228 36.5821 18.3794 32.5452 11.0145Z" fill="#13161C"/>
</svg>
