<svg width="25" height="31" viewBox="0 0 25 31" fill="none" xmlns="http://www.w3.org/2000/svg">
<path fill-rule="evenodd" clip-rule="evenodd" d="M1.45313 18.6139C1.07376 19.5252 0.861832 20.4974 0.8275 21.4839C0.879851 22.0923 1.08734 22.6771 1.43016 23.1825C2.07522 23.9293 2.85096 24.5524 3.71938 25.0211L9.32813 28.7552C10.0183 29.3044 10.7943 29.736 11.625 30.0327C12.1643 30.161 12.7263 30.161 13.2656 30.0327C14.1018 29.7397 14.8841 29.311 15.5811 28.7639L21.25 25.0277C22.1273 24.5576 22.9118 23.932 23.5655 23.1814C23.9107 22.6733 24.118 22.0842 24.167 21.4719C24.1298 20.4774 23.9123 19.4979 23.525 18.5811L18.567 2.97766C18.4564 2.47232 18.2563 1.9908 17.9764 1.55578C17.7725 1.30804 17.5091 1.11611 17.2108 0.997967C16.7124 0.862831 16.1938 0.817644 15.6795 0.86453H9.22422C8.70973 0.817763 8.19103 0.864076 7.69297 1.00125C7.39395 1.11915 7.13029 1.312 6.92734 1.56125C6.64863 1.9963 6.45043 2.47792 6.34219 2.98312L1.45313 18.6139ZM15.9344 4.1764C16.165 4.54303 16.3283 4.94787 16.4167 5.37187L20.6736 19.3544C19.0747 18.5251 17.3585 17.9449 15.5844 17.6339L12.8183 8.2714C12.8013 8.21611 12.7713 8.16569 12.7308 8.12437C12.6903 8.08306 12.6405 8.05205 12.5855 8.03395C12.5306 8.01584 12.4721 8.01118 12.415 8.02033C12.3578 8.02948 12.3037 8.0522 12.2572 8.08656C12.1947 8.13226 12.149 8.1972 12.127 8.2714L9.39266 17.6306C7.61016 17.9409 5.88596 18.5234 4.28047 19.3577L8.55484 5.37515C8.64236 4.95036 8.80615 4.54496 9.03828 4.17859C9.20758 3.97082 9.42651 3.80907 9.67484 3.70828C10.0932 3.59519 10.5285 3.55814 10.96 3.5989H14.0148C14.4467 3.55811 14.8823 3.59515 15.3011 3.70828C15.5502 3.80936 15.7695 3.97192 15.9387 4.18078L15.9344 4.1764ZM12.6389 21.0344C13.9552 21.1106 15.2606 20.7562 16.3577 20.0248C16.4824 20.4174 16.5266 20.8311 16.4877 21.2412C16.4488 21.6513 16.3275 22.0493 16.1313 22.4114C15.7277 23.0973 15.142 23.658 14.4392 24.0312C13.702 24.4994 13.0677 24.9062 13.0677 25.9858C13.0667 26.3321 13.1449 26.674 13.2963 26.9855C12.7991 26.779 12.3743 26.4299 12.0755 25.9821C11.7767 25.5344 11.6173 25.0081 11.6173 24.4698V24.4031C11.6173 23.6561 11.6173 22.7362 10.5652 22.7362C10.4185 22.7362 10.2732 22.7648 10.1375 22.8205C9.86443 22.9335 9.64732 23.1503 9.53375 23.4231C9.47736 23.5587 9.448 23.704 9.44734 23.8508C8.72616 23.0632 8.33876 22.0264 8.36672 20.9589C8.36161 20.4969 8.42613 20.0367 8.55813 19.5939C8.99563 20.4219 10.6581 21.0377 12.6389 21.0377V21.0344Z" fill="#13161C"/>
</svg>
