<svg width="250" height="250" viewBox="0 0 250 250" fill="none" xmlns="http://www.w3.org/2000/svg">
<path d="M126.511 21.8447C160.288 111.549 156.593 154.296 126.511 222.714C101.476 83.4753 102.192 41.2152 126.511 21.8447Z" fill="#0AE98A"/>
<path d="M250 125C250 144.839 245.278 164.393 236.224 182.046C227.17 199.698 214.045 214.942 197.933 226.517C181.821 238.093 163.185 245.667 143.566 248.613C123.947 251.56 103.909 249.795 85.1074 243.463C66.3058 237.132 49.2814 226.416 35.4413 212.202C21.6013 197.988 11.3433 180.684 5.5153 161.721C-0.312692 142.757 -1.54325 122.679 1.92535 103.145C5.39395 83.6119 13.4621 65.1846 25.4628 49.3869L44.5767 63.9068C34.8805 76.6709 28.3617 91.5596 25.5592 107.342C22.7566 123.124 23.7509 139.347 28.4597 154.669C33.1686 169.991 41.4568 183.973 52.6391 195.457C63.8215 206.942 77.5768 215.599 92.7679 220.715C107.959 225.831 124.15 227.257 140.001 224.876C155.853 222.495 170.91 216.376 183.928 207.023C196.946 197.671 207.551 185.354 214.866 171.091C222.181 156.828 225.996 141.029 225.996 125L250 125Z" fill="#0AE98A"/>
</svg>
