<svg width="35" height="35" viewBox="0 0 35 35" fill="none" xmlns="http://www.w3.org/2000/svg">
<path d="M17.5 4.375H13.125C10.7088 4.375 8.75 6.33376 8.75 8.75C8.75 11.1662 10.7088 13.125 13.125 13.125M17.5 4.375V13.125M17.5 4.375H21.875C24.2913 4.375 26.25 6.33376 26.25 8.75C26.25 11.1662 24.2913 13.125 21.875 13.125M13.125 13.125H17.5M13.125 13.125C10.7088 13.125 8.75 15.0837 8.75 17.5C8.75 19.9163 10.7088 21.875 13.125 21.875M17.5 13.125H21.875M17.5 13.125V21.875M21.875 13.125C24.2913 13.125 26.25 15.0837 26.25 17.5C26.25 19.9163 24.2913 21.875 21.875 21.875C19.4587 21.875 17.5 19.9163 17.5 17.5C17.5 15.0837 19.4587 13.125 21.875 13.125ZM17.5 21.875H13.125M17.5 21.875V26.25C17.5 28.6663 15.5413 30.625 13.125 30.625C10.7088 30.625 8.75 28.6663 8.75 26.25C8.75 23.8337 10.7088 21.875 13.125 21.875" stroke="#13161C" stroke-width="3.5" stroke-linecap="round" stroke-linejoin="round"/>
</svg>
