<svg width="32" height="32" viewBox="0 0 32 32" fill="none" xmlns="http://www.w3.org/2000/svg">
<path fill-rule="evenodd" clip-rule="evenodd" d="M0.0654918 0.0341797C0.0303548 0.0392961 0.0329439 0.0816454 0.0354713 0.124056C0.0354713 10.583 0.0354713 21.0404 0.0354713 31.4991C10.4757 31.5691 21.0442 31.5091 31.5342 31.5291C31.5342 21.0306 31.5342 10.5326 31.5342 0.0341797C21.045 0.0341797 10.5547 0.0341797 0.0654918 0.0341797ZM16.0241 27.8766C15.2954 28.6114 14.1454 29.0441 12.7306 29.0441C10.4101 29.0441 9.12177 27.9135 8.29938 26.3495C9.09101 25.8441 9.90002 25.3557 10.7247 24.8827C11.061 25.8235 12.1971 26.8812 13.4791 26.2301C14.2918 25.8171 14.1979 24.5651 14.1979 23.2062C14.1979 20.3846 14.1979 17.1295 14.1979 14.584C14.1954 14.5416 14.1928 14.4992 14.2277 14.4941C15.1959 14.4941 16.1641 14.4941 17.1321 14.4941C17.1321 16.7618 17.1321 19.3271 17.1321 21.739C17.1321 24.3649 17.3197 26.5711 16.0241 27.8766ZM29.0188 25.2722C28.854 27.7308 26.8463 29.0363 24.1385 29.0441C21.484 29.0517 19.785 27.872 18.7488 26.0502C19.4938 25.5375 20.3379 25.1245 21.1144 24.6434C21.7357 25.6149 22.8119 26.5488 24.4079 26.4096C25.4023 26.3229 26.5566 25.5124 25.905 24.284C25.5889 23.6885 24.8252 23.386 24.1385 23.0865C21.9593 22.1358 19.4025 21.2637 19.6471 17.8473C19.7289 16.706 20.2544 15.904 20.9347 15.3325C21.632 14.7469 22.5658 14.3544 23.8091 14.3147C26.0671 14.2424 27.3058 15.2468 28.1506 16.65C27.4316 17.1981 26.6395 17.6738 25.8451 18.1468C25.5844 17.3457 24.326 16.5651 23.2701 17.0391C22.79 17.2544 22.3585 17.8874 22.6115 18.6557C22.8371 19.3408 23.7574 19.7159 24.4978 20.033C26.7386 20.9922 29.2429 21.9296 29.0188 25.2722Z" fill="#13161C"/>
</svg>
