<svg width="36" height="35" viewBox="0 0 36 35" fill="none" xmlns="http://www.w3.org/2000/svg">
<g clip-path="url(#clip0_137_2)">
<path d="M6.78524 5.90151C7.82687 6.75059 8.22142 6.69062 10.1879 6.5591L28.7268 5.44698C29.1214 5.44698 28.7931 5.05242 28.6605 4.98614L25.5809 2.76084C24.9948 2.29999 24.2057 1.78023 22.698 1.90544L4.75143 3.22063C4.09383 3.2806 3.96231 3.60992 4.22535 3.87296L6.78524 5.90151ZM7.89736 10.2259V29.7285C7.89736 30.7754 8.41817 31.17 9.59658 31.1037L29.9715 29.9253C31.1499 29.859 31.2867 29.1414 31.2867 28.2871V8.91592C31.2867 8.06052 30.9574 7.60599 30.2345 7.67228L8.9453 8.91592C8.15619 8.98221 7.89841 9.37045 7.89841 10.2206L7.89736 10.2259ZM28.0092 11.2664C28.1408 11.8588 28.0092 12.4448 27.4169 12.5164L26.4363 12.7142V27.1097C25.5809 27.5706 24.7981 27.8336 24.1457 27.8336C23.0936 27.8336 22.8305 27.5043 22.0467 26.5237L15.6244 16.4409V26.1954L17.6571 26.6563C17.6571 26.6563 17.6571 27.8347 16.0189 27.8347L11.4978 28.0977C11.3663 27.8347 11.4978 27.1771 11.9587 27.0508L13.1371 26.7215V13.8274L11.4989 13.6958C11.3674 13.1035 11.6967 12.2544 12.611 12.1892L17.4604 11.8598L24.1457 22.0741V13.0372L22.4412 12.8394C22.3097 12.1218 22.8305 11.5958 23.4881 11.5347L28.0092 11.2664ZM3.24475 1.45196L21.9152 0.076796C24.2057 -0.121009 24.7981 0.0105105 26.2385 1.0574L32.201 5.24917C33.1816 5.96674 33.5109 6.16455 33.5109 6.9484V29.9263C33.5109 31.3678 32.9849 32.2169 31.1541 32.3484L9.46401 33.6583C8.09411 33.7246 7.43652 33.5268 6.71264 32.6114L2.32306 26.9119C1.53921 25.865 1.21094 25.0812 1.21094 24.1669V3.74355C1.21094 2.56514 1.73701 1.58453 3.24369 1.45301L3.24475 1.45196Z" fill="#13161C"/>
</g>
<defs>
<clipPath id="clip0_137_2">
<rect width="35" height="35" fill="white" transform="translate(0.5)"/>
</clipPath>
</defs>
</svg>
