<svg width="35" height="19" viewBox="0 0 35 19" fill="none" xmlns="http://www.w3.org/2000/svg">
<path d="M17.5 0.0208435C7.68687 0.0208435 0 4.18439 0 9.50001C0 14.8156 7.68687 18.9792 17.5 18.9792C27.3131 18.9792 35 14.8156 35 9.50001C35 4.18439 27.3131 0.0208435 17.5 0.0208435ZM15.6829 2.93751H17.5933L16.9867 5.85418H18.6929C19.775 5.85418 20.5013 6.00584 20.9154 6.38355C21.3194 6.75689 21.4419 7.36939 21.28 8.20355L20.5217 11.6875H18.5792L19.2777 8.46605C19.3613 8.02175 19.3288 7.71793 19.18 7.55459C19.0327 7.39272 18.7075 7.31251 18.2204 7.31251H16.6906L15.7675 11.6875H13.8542L15.6829 2.93751ZM7.29167 5.85418H11.1796C13.0331 5.85418 14.156 7.09668 13.7171 8.95022C13.2067 11.1042 11.8417 11.6875 9.3275 11.6875H8.12583L7.74521 13.875H5.81292L7.29167 5.85418ZM22.6042 5.85418H26.4921C28.3456 5.85418 29.4685 7.09668 29.0296 8.95022C28.5192 11.1042 27.1527 11.6875 24.64 11.6875H23.4383L23.0577 13.875H21.1254L22.6042 5.85418ZM8.94688 7.31251L8.39708 10.2292H9.64396C10.7231 10.2292 11.7265 10.1067 11.8942 8.49813C11.9569 7.87397 11.6973 7.31251 10.4504 7.31251H8.94688ZM24.2594 7.31251L23.7096 10.2292H24.9565C26.0356 10.2292 27.039 10.1067 27.2067 8.49813C27.2694 7.87397 27.0113 7.31251 25.7629 7.31251H24.2594Z" fill="#13161C"/>
</svg>
